<svg xmlns="http://www.w3.org/2000/svg" id="Layer_1" data-name="Layer 1" viewBox="0 0 360 360"><path d="M183.18,189.38c1.27-1.32,2.45-2.46,3.5-3.71a2.48,2.48,0,0,0,.24-1.56c-.64-11.79,3.88-21.16,13.44-28,6.24-4.47,13.41-6.11,21-6.13,2.57,0,5.15.15,7.72.29a3.06,3.06,0,0,1,3.15,3.69,95.25,95.25,0,0,1-2.29,11.75c-2.43,8.85-7.36,16-15.38,20.72a29.94,29.94,0,0,1-21.24,3.76,3.13,3.13,0,0,0-3.32,1.08,25.77,25.77,0,0,0-6.75,12.89,9.26,9.26,0,0,0-.08,1.08h76.51c5.14,0,8.17,3,8.18,8.11,0,1.06,0,2.12,0,3.18a7.49,7.49,0,0,1-5.18,7.09,1.49,1.49,0,0,0-1.21,1.39c-2.39,14.11-9.65,25.37-20.41,34.52a60.5,60.5,0,0,1-14.92,9.35c-.2.09-.38.23-.19.36.22,2.34.86,4.74.58,7-.74,6-5.54,10-11.63,10-7.31.06-14.63,0-21.94,0q-23.81,0-47.62,0c-6,0-10.52-3.57-11.78-9.24a12.19,12.19,0,0,1,.86-7.54l-2.6-1.28c-13.82-6.93-24.26-17.19-30.35-31.5-1.57-3.69-2.3-7.74-3.33-11.64a1.82,1.82,0,0,0-1.24-1.55,7.21,7.21,0,0,1-4.92-7c0-1.15,0-2.3,0-3.45a7.5,7.5,0,0,1,7.89-7.9q14.84,0,29.67,0H177c-.27-1.27-.44-2.35-.75-3.38A26,26,0,0,0,169,190.44a2.06,2.06,0,0,0-1.58-.31c-10.2,1.89-19.28-.47-27.1-7.27-6.09-5.3-9.49-12.21-11.26-20-.6-2.63-1-5.33-1.35-8-.42-3.15.86-4.6,4-4.63a106.25,106.25,0,0,1,11.43,0c10,1,18.35,5.28,24.3,13.53A29,29,0,0,1,172.93,184a2.48,2.48,0,0,0,.84,2.3c1,.92,1.88,2,3,3.12,0-.67.09-1.1.09-1.53,0-8.93,0-17.85,0-26.78a2.59,2.59,0,0,0-1-2.21c-9.2-7.63-13.93-17.32-13.15-29.37.49-7.69,3.46-14.55,7.84-20.79,2.08-3,4.44-5.74,6.78-8.51a3.35,3.35,0,0,1,5.31-.14c4.8,5.08,9,10.58,11.73,17.08,5,12,4.56,23.56-3.1,34.32-2,2.84-4.88,5.08-7.32,7.64a2.42,2.42,0,0,0-.77,1.44c0,9.38,0,18.77,0,28.15C183.14,188.88,183.16,189,183.18,189.38Zm-3.26,22.14H100.29c-1.76,0-2.11.36-2.12,2.09,0,.65,0,1.29,0,1.94,0,1.79.31,2.1,2.16,2.27a3.79,3.79,0,0,1,3.74,3.69,44.44,44.44,0,0,0,5.81,18.11,53.62,53.62,0,0,0,13.94,16c9.94,7.87,21.19,12.28,34,12.32q21.94.07,43.89,0a51.07,51.07,0,0,0,9.32-.87,56.87,56.87,0,0,0,31.08-17.27,48.52,48.52,0,0,0,13.54-28.36,3.84,3.84,0,0,1,3.92-3.67c1.68-.13,2.07-.54,2.08-2.22,0-.51,0-1,0-1.52,0-2.43-.12-2.54-2.6-2.54Zm.12-57.41c7-5.73,11.2-12.85,11.28-22,.07-7.24-2.76-13.61-6.73-19.5-1.38-2-3-4-4.51-6a48.1,48.1,0,0,0-9.6,16C166.19,135,170.66,146.8,180,154.11Zm-45.74,2.38c.72,5.85,2.18,11.39,5.55,16.2,6.27,9,14.79,13.05,25.81,11.45,1-.14,1.33-.49,1.33-1.47a24.82,24.82,0,0,0-3.35-13.2C157.5,159.28,146.21,155.12,134.3,156.49Zm91.27,0c-8.28-1.12-18.1.81-24.94,7.44A24,24,0,0,0,193,182.8c0,.58-.05,1.12.85,1.28a24.63,24.63,0,0,0,18.21-3.55C220.73,174.92,224.15,166.33,225.57,156.53ZM180.06,280h34.21a10,10,0,0,0,2.19-.18,5.26,5.26,0,0,0,3.68-7c-.35-.77-.72-1.26-1.77-.93a57.52,57.52,0,0,1-17.53,2.57q-20.68,0-41.38,0a61,61,0,0,1-18-2.44c-.87-.26-1.32,0-1.59.74a5.31,5.31,0,0,0-.37,1.46c-.26,3.28,2.27,5.77,5.91,5.77Q162.75,280,180.06,280Z"/><path d="M249.46,123.07c-16.74-5.5-21.54-26.13-12.39-38.83a24.87,24.87,0,0,1,36.15-4.85c11.23,9.1,13,28.15-.22,39.31.65.22,1.24.4,1.81.61,10.24,3.74,16.8,11.05,20,21.3a38.94,38.94,0,0,1,1.7,11c.18,16.93.08,33.86.08,50.79,0,2.75-2.12,4.32-4.47,3.34a3.19,3.19,0,0,1-1.93-3.34c0-9,0-18,0-27,0-7.45,0-14.9,0-22.35,0-6.69-1.64-13-5.63-18.42-4.78-6.54-11.09-10.37-19.44-10.18-9.79.23-18.5,7.35-21.24,17.37-.21.8-.39,1.61-.54,2.42a3.12,3.12,0,0,1-3.56,2.83,3,3,0,0,1-2.74-3.74,53.18,53.18,0,0,1,2.58-8.39A26.19,26.19,0,0,1,249,123.52,6.34,6.34,0,0,0,249.46,123.07Zm7.91-5.44a18.7,18.7,0,0,0,18.54-18.71,18.53,18.53,0,0,0-37.05,0A18.71,18.71,0,0,0,257.37,117.63Z"/><path d="M87.19,118.73a25.88,25.88,0,0,1-6.78-31.21A25,25,0,0,1,106.62,74c9.89,1.43,18.4,9.82,20.42,19.77,2.15,10.53-2.84,24.56-16.53,29.32,1.61,1.47,3.39,2.86,4.88,4.51a29.55,29.55,0,0,1,7.35,15.32c.35,2.2-.64,3.79-2.59,4.13s-3.25-.78-3.72-2.94c-2-9.06-7-15.63-16-18.63-8.73-2.93-18.33.33-24.3,8a31,31,0,0,0-6.38,19.41q-.06,24,0,48c0,.74,0,1.48,0,2.21a2.92,2.92,0,0,1-3.13,2.81,3.07,3.07,0,0,1-3.13-2.88c0-.18,0-.37,0-.55,0-17.34-.15-34.68.11-52A33.58,33.58,0,0,1,75.75,124.6,28.09,28.09,0,0,1,87.19,118.73ZM121.1,99a18.45,18.45,0,1,0-36.9-.32c-.06,10.21,8.3,18.92,18.18,18.93A18.63,18.63,0,0,0,121.1,99Z"/><path d="M231.12,195.23a3.25,3.25,0,0,1-3.47-2.81,3.35,3.35,0,0,1,2.59-3.58c1.41-.41,2.86-.73,4.23-1.23,10.41-3.81,19.11-9.86,24.64-19.71a47,47,0,0,0,3.27-8.3c.66-2,2.19-3.23,4.06-2.84s3,2.08,2.49,4.32a41.53,41.53,0,0,1-10.3,18.48A54.33,54.33,0,0,1,232.51,195C232,195.11,231.43,195.17,231.12,195.23Z"/><path d="M132.37,192a3.11,3.11,0,0,1-4.25,3.1,97.9,97.9,0,0,1-12.94-5,46.24,46.24,0,0,1-20.39-19.57A69.73,69.73,0,0,1,91,160.87a3,3,0,0,1,1-3.38,2.76,2.76,0,0,1,3.21-.54,4.17,4.17,0,0,1,2,2.09c2.88,11.34,10.23,19,20,24.68a47.57,47.57,0,0,0,12.49,5A3.22,3.22,0,0,1,132.37,192Z"/></svg>