<svg xmlns="http://www.w3.org/2000/svg" id="Layer_1" data-name="Layer 1" viewBox="0 0 360 360"><path d="M89.67,153.73V112.36c0-2.25.69-3.32,2.76-4.08A431,431,0,0,0,140,87c12.73-6.54,25.26-13.41,37.57-20.71a4.3,4.3,0,0,1,4.8,0A625.75,625.75,0,0,0,238,95.85c9.55,4.4,19.37,8.23,29.09,12.25,2.47,1,3.19,1.88,3.19,4.52,0,25.88.06,51.75,0,77.63-.05,12.09-3,23.57-7.92,34.58a107.71,107.71,0,0,1-24.64,34.22,161,161,0,0,1-32.12,23.36A243.79,243.79,0,0,1,182.1,294a5,5,0,0,1-4.24,0,233.32,233.32,0,0,1-28.25-14.34,149.48,149.48,0,0,1-29.12-22.21c-14.21-14.16-24.35-30.68-28.8-50.43a80.17,80.17,0,0,1-2-18.07c0-11.73,0-23.45,0-35.18Zm174,0h0q0-19.32,0-38.64c0-.69-.09-1.13-.86-1.43q-7-2.72-14-5.57A444.78,444.78,0,0,1,207.19,88c-8.8-4.75-17.46-9.78-26.17-14.72a1.77,1.77,0,0,0-2.06,0c-1.86,1.15-3.72,2.31-5.64,3.35-12.44,6.71-24.82,13.54-37.38,20a354.2,354.2,0,0,1-38.29,16.8,1.74,1.74,0,0,0-1.38,1.93c0,22.1,0,44.2,0,66.3,0,4.57-.09,9.16.32,13.7,1.38,15,6.8,28.6,15.13,41.07a112.3,112.3,0,0,0,22.73,24.45C148,272,163.2,280.35,179.17,287.35a2.15,2.15,0,0,0,1.54,0c2.24-.93,4.45-1.92,6.64-2.95,14.91-7,29-15.42,41.44-26.28,12.73-11.09,22.86-24.05,29-39.9a81.51,81.51,0,0,0,5.89-29.87Q263.68,171,263.7,153.75Z"/><path d="M211.93,251a42.14,42.14,0,0,1,1.73,3.92,2.72,2.72,0,0,1-3.07,3.69,4,4,0,0,1-2.11-1.32c-.75-.85-1.21-1.95-1.89-2.88a1.48,1.48,0,0,0-1.12-.49c-2,.16-4,.59-6,.6q-20.26.09-40.54,0a43.2,43.2,0,0,1-4.33-.58,1.48,1.48,0,0,0-1.14.41c-.62.82-1.1,1.74-1.66,2.61a3.2,3.2,0,0,1-4.29,1.34c-1.44-.83-1.74-2.26-.85-4.16.47-1,1-2,1.51-3.1l-1.29-.84a41.06,41.06,0,0,1-18.26-25.09c-.27-1.06-.69-1.44-1.75-1.35-3.84.33-4.79-.83-4.58-4.56.1-1.7,0-3.41,0-5.12,0-2.39,1-3.23,3.3-3.4a53.93,53.93,0,0,0,7.17-1,12.2,12.2,0,0,0,6.38-3.76c.86-.92,1.52-.86,2.41-.08s1.94,1.49,3.12,2.37c-.68.61-1.32,1.22-2,1.77a24.83,24.83,0,0,1-13.42,5.35c-.92.08-1.76.13-1.72,1.43s.14,1.53,1.58,1.53l97.51,0c1.55,0,3.1,0,4.65,0,.85,0,1.25-.29,1.21-1.18s.14-1.66-1.17-1.74a25.36,25.36,0,0,1-14.07-5.28c-.57-.43-1.1-.91-1.63-1.38a4.17,4.17,0,0,1-.37-.49c1.22-.95,2.38-1.92,3.63-2.75a1.4,1.4,0,0,1,1.32.18c3.89,3.83,8.73,5,14,5,2.64,0,3.51.9,3.53,3.5,0,2.19,0,4.38,0,6.56a2.63,2.63,0,0,1-2.81,3c-1,.05-2.24-.25-2.89.25s-.66,1.77-1,2.71a42.07,42.07,0,0,1-18.4,23.78C212.41,250.6,212.2,250.78,211.93,251Zm14.2-27.1H134.07c.2.74.31,1.37.52,2,3.82,11,11.24,18.52,22,22.77a9,9,0,0,0,3.14.55c13.23,0,26.46,0,39.7,0A13.33,13.33,0,0,0,205.1,248a37.09,37.09,0,0,0,18.84-18.42C224.78,227.8,225.36,225.9,226.13,223.87Z"/><path d="M180,209.83c.9-1.12,1.72-2.09,2.45-3.12a1.81,1.81,0,0,0,.19-1.22c-1.61-10.26,3-17.68,11-23.26,7.55-5.28,16.13-7.11,25.28-6.12,3.11.34,6.19.92,9.27,1.49,1.52.28,1.86.89,1.57,2.38a45.38,45.38,0,0,1-7.56,18.23c-7.67,10.62-21.3,15.26-33.13,11.08a5.44,5.44,0,0,1-.57-.19,1.75,1.75,0,0,0-2.57.79c-1.08,1.66-2.27,3.26-3.46,4.85a3.19,3.19,0,0,1-4.93,0c-1.21-1.63-2.45-3.23-3.59-4.9a1.81,1.81,0,0,0-2.51-.76,25.7,25.7,0,0,1-13.47,1.47c-9.84-1.47-17-6.83-22-15.26A48.15,48.15,0,0,1,130.26,180c-.28-1.38.05-2.09,1.27-2.39,10-2.48,20-2.78,29.62,1.65a29.46,29.46,0,0,1,12.64,10.37,20.66,20.66,0,0,1,3.43,15.3,2.52,2.52,0,0,0,.69,2.48C178.61,208.13,179.2,208.94,180,209.83Zm44.87-28.27c-2.23-.28-4.06-.57-5.9-.73-8.23-.75-16,.53-22.92,5.37a20.52,20.52,0,0,0-8.7,12.24,33.45,33.45,0,0,0-.51,4l.3.16c1.91-1.5,3.7-3.19,5.74-4.49a14.14,14.14,0,0,0,6-7.26,12.16,12.16,0,0,1,1.85-2.88,5.68,5.68,0,0,1,.74-.73.36.36,0,0,1,.58.25,7.78,7.78,0,0,1,0,1.09c-.1,1.17-.28,2.32-.45,3.67.63-.37,1.09-.68,1.58-.92,2.64-1.27,5.25-2.63,7.95-3.75a7.33,7.33,0,0,1,5-.12.32.32,0,0,1,.07.58c-4.26,2.57-8.88,4.49-13,7.52,3.47.73,5.4,1.48,6.3,2.45a.3.3,0,0,1-.12.48,1.36,1.36,0,0,1-.38.08c-2.26,0-4.53,0-6.78-.17-1.86-.14-3.58-.23-5.09,1.21-1.87,1.78-3.87,3.41-5.81,5.11a5.39,5.39,0,0,0-.52.68,29.32,29.32,0,0,0,13.12-.11c8.11-2.19,13.76-7.41,17.46-14.77C222.65,187.76,223.58,184.75,224.83,181.56Zm-55.76,23.86.1-.42c-2.62-2.16-5.24-4.33-7.88-6.46a1.57,1.57,0,0,0-1-.2c-1.66.09-3.32.26-5,.32-1.88.06-3.77,0-5.66,0,1.87-2.17,4.58-2.41,7.12-3l0-.34-13.6-7.42,0-.35c5.86-1.35,10.39,1.9,15.11,4.64-.18-1.57-.36-3-.57-4.78a3.78,3.78,0,0,1,2.47,2.1c.81,1.55,1.51,3.15,2.33,4.69a5,5,0,0,0,1.24,1.53c2.34,1.85,4.72,3.64,7.08,5.45l2,1.48A16.37,16.37,0,0,0,169.63,192c-3.5-5-8.42-8-14.1-9.85-5.52-1.79-11.18-1.7-16.87-1.12-1,.1-2.08.33-3.2.51.09.46.12.77.21,1.06.29,1,.59,1.9.92,2.83,2.07,5.92,5.12,11.2,10.11,15.15C153.35,205.84,160.89,207.15,169.07,205.42Z"/><path d="M215.22,117.67c0,.58.07.84.07,1.11,0,7.35.11,14.71,0,22.06-.15,7.08-3,13.16-7.6,18.46a43.39,43.39,0,0,1-12.9,9.68c-4.25,2.25-8.56,4.37-12.84,6.55a3.76,3.76,0,0,1-3.66.11c-6.24-3.33-12.66-6.36-18.63-10.1-8.35-5.24-13.5-12.87-14.76-22.84a24.52,24.52,0,0,1-.16-3q0-13.3,0-26.59c0-2.52,1.16-3.73,3.7-3.75a41.19,41.19,0,0,0,17.82-3.73,42.22,42.22,0,0,0,11.19-7.8c1.79-1.73,3.35-1.72,5.2,0a41.87,41.87,0,0,0,15.56,9.47c1.49.49,3,.82,4.59,1.24-1.24,1.9-1.1,2.4.91,3.56-1.16,2.1-2,2.46-4.28,2a43,43,0,0,1-18.14-8.86c-.31-.25-.62-.51-.93-.75a1.53,1.53,0,0,0-.24-.14c-1.73,1.29-3.42,2.67-5.22,3.87a43,43,0,0,1-22.36,7.34c-1,0-1.35.29-1.34,1.35,0,7.6,0,15.19,0,22.78A23.14,23.14,0,0,0,158,155.88c3.7,3.89,8.35,6.43,13,8.89q4,2.08,8,4a1.79,1.79,0,0,0,1.41.17c6-3.07,12.23-5.79,17.7-9.81a25,25,0,0,0,10.26-15.41,20.51,20.51,0,0,0,.41-3.91q.07-7.56,0-15.14a2.45,2.45,0,0,1,.92-2C211.51,121.11,213.24,119.48,215.22,117.67Z"/><path d="M179.56,142.24c9.48-11.07,18.88-22,30.17-31.6l-1.95-.25c-.78-.09-1.59-.12-2.36-.28a1.84,1.84,0,0,1-1.63-2.12,2,2,0,0,1,2.18-1.61c3.44.31,6.88.64,10.32,1a2.43,2.43,0,0,1,2.17,1.93c.28,1-.34,1.6-1,2.2a146.47,146.47,0,0,0-21.05,22.35c-5,6.63-9.69,13.47-14.5,20.24-1,1.4-1.74,1.53-2.91.25q-7.87-8.55-15.73-17.11c-.89-1-1.82-1.89-2.77-2.8-.74-.71-.78-1.3.12-1.91,1.19-.79,2.34-1.65,3.53-2.44a1.91,1.91,0,0,1,2.86.24c3.84,3.63,7.67,7.28,11.5,10.91C178.8,141.58,179.13,141.85,179.56,142.24Z"/></svg>